<svg xmlns="http://www.w3.org/2000/svg" viewBox="0 0 1022 141.49">
    <style>
        .logo-text {
        fill: #f1f1f1;
        }

        .icon-1 {
        fill: #7c7c7c;
        }

        .icon-2 {
        fill: #c9c9c9;
        }

        .icon-3 {
        fill: #676767;
        }

        .icon-4 {
        fill: #838383;
        }

        .icon-5 {
        fill: #343434;
        }
    </style>
    <g>
        <g>
            <path class="logo-text" d="M367.35,46.45c-26,0-44.3,19.2-44.3,44.7s19,44.6,44.9,44.6c13,0,26.3-5.5,34.8-16,1-1.2.7-2.9-.5-3.8l-9-6.6c-1.1-.8-2.6-.6-3.5.4-5.9,6.5-13.1,9.4-21.8,9.4-14.8,0-25.8-10.1-26.6-23h65.2c.8,0,1.5-.6,1.6-1.3.4-2.3.5-4.6.5-6.9-.1-23-16.3-41.5-41.3-41.5h0ZM341.75,82.95c2.2-12,12.2-20.5,25.4-20.5,12.3,0,22.4,8.5,23.5,20.5h-48.9Z"/>
            <path class="logo-text" d="M391.95,14.95l-9.6,9.3c-8,7.8-18.7,12.1-29.8,12.1h-3.7c-1,0-1.4-1.2-.8-1.8l22.7-22.6c1-1,2.3-1.6,3.8-1.6h15.4c2.5,0,3.7,2.9,2,4.6h0Z"/>
            <path class="logo-text" d="M188.35,8.55c-6.4,0-10.9,4.5-10.9,10.9s4.5,10.9,10.9,10.9,11-4.5,11-10.9-4.6-10.9-11-10.9ZM194.55,48.25h-12.3c-1.5,0-2.7,1.2-2.7,2.7v80.4c0,1.5,1.2,2.7,2.7,2.7h12.3c1.5,0,2.7-1.2,2.7-2.7V50.95c-.1-1.5-1.3-2.7-2.7-2.7Z"/>
            <path class="logo-text" d="M287.85,13.05l.1,46.9c-6.3-8.1-16-13.5-30.5-13.5-24.4,0-43.1,17.9-43.1,44.2s18.6,45.1,43,45.1c14.6,0,24.2-5.4,30.5-13.5v9c0,1.5,1.2,2.7,2.7,2.7h12.3c1.5,0,2.7-1.2,2.7-2.7V13.05c0-1.5-1.2-2.7-2.7-2.7h-12.4c-1.4,0-2.6,1.2-2.6,2.7ZM259.55,119.85c-16.5,0-27.5-13.4-27.5-29.2s11-28.3,27.5-28.3,28.3,12.5,28.3,28.3-11.8,29.2-28.3,29.2Z"/>
            <path class="logo-text" d="M474.55,46.45c-14.6,0-24.2,5.4-30.5,13.5V13.05c0-1.5-1.2-2.7-2.7-2.7h-12.3c-1.5,0-2.7,1.2-2.7,2.7v118.3c0,1.5,1.2,2.7,2.7,2.7h12.3c1.5,0,2.7-1.2,2.7-2.7v-9c6.3,8.1,16,13.5,30.5,13.5,24.4,0,43-18.8,43-45.1s-18.6-44.3-43-44.3h0ZM472.35,119.85c-16.5,0-28.3-13.4-28.3-29.2s11.9-28.3,28.3-28.3,27.5,12.5,27.5,28.3-10.9,29.2-27.5,29.2Z"/>
            <path class="logo-text" d="M618.35,48.25h-12.3c-1.5,0-2.7,1.2-2.7,2.7v9c-6.3-8.1-16-13.5-30.5-13.5-24.4,0-43,17.9-43,44.2s18.7,45.1,43,45.1c14.6,0,24.2-5.4,30.5-13.5v9c0,1.5,1.2,2.7,2.7,2.7h12.3c1.5,0,2.7-1.2,2.7-2.7V50.85c0-1.4-1.2-2.6-2.7-2.6ZM574.95,119.85c-16.5,0-27.5-13.4-27.5-29.2s11-28.3,27.5-28.3,28.3,12.5,28.3,28.3-11.8,29.2-28.3,29.2Z"/>
            <path class="logo-text" d="M688.35,46.45c-15.4,0-23.5,8.2-26.3,12.6v-8.1c0-1.5-1.2-2.7-2.7-2.7h-12.4c-1.5,0-2.7,1.2-2.7,2.7v80.4c0,1.5,1.2,2.7,2.7,2.7h12.3c1.5,0,2.7-1.2,2.7-2.7v-45.6c0-14.2,10.6-22.4,23.7-22.4s21.1,8.2,21.1,22.4v45.6c0,1.5,1.2,2.7,2.7,2.7h12.3c1.5,0,2.7-1.2,2.7-2.7v-49.4c-.1-20.9-12.6-35.5-36.1-35.5h0Z"/>
            <path class="logo-text" d="M824.05,129.65l-35-45.5,32.2-31.3c1.7-1.7.5-4.6-1.9-4.6h-16.6c-.7,0-1.4.3-1.9.8l-36.6,36.5V13.15c0-1.5-1.2-2.7-2.7-2.7h-12.5c-1.5,0-2.7,1.2-2.7,2.7v118.3c0,1.5,1.2,2.7,2.7,2.7h12.5c1.5,0,2.7-1.2,2.7-2.7v-22.8l12-12,28,36.4c.5.7,1.3,1,2.1,1h15.7c2-.1,3.3-2.7,2-4.4h0Z"/>
            <path class="logo-text" d="M871.85,46.45c-26,0-44.3,19.2-44.3,44.7s19,44.6,44.9,44.6c13,0,26.3-5.5,34.8-16,1-1.2.7-2.9-.5-3.8l-9-6.6c-1.1-.8-2.6-.6-3.5.4-5.9,6.5-13.1,9.4-21.8,9.4-14.8,0-25.8-10.1-26.6-23h65.2c.8,0,1.5-.6,1.6-1.3.4-2.3.5-4.6.5-6.9,0-23-16.3-41.5-41.3-41.5h0ZM846.35,82.95c2.2-12,12.2-20.5,25.4-20.5,12.3,0,22.4,8.5,23.5,20.5h-48.9Z"/>
            <path class="logo-text" d="M974.95,46.45c-15.4,0-23.5,8.2-26.3,12.6v-8.1c0-1.5-1.2-2.7-2.7-2.7h-12.4c-1.5,0-2.7,1.2-2.7,2.7v80.4c0,1.5,1.2,2.7,2.7,2.7h12.3c1.5,0,2.7-1.2,2.7-2.7v-45.6c0-14.2,10.6-22.4,23.7-22.4s21.1,8.2,21.1,22.4v45.6c0,1.5,1.2,2.7,2.7,2.7h12.3c1.5,0,2.7-1.2,2.7-2.7v-49.4c-.1-20.9-12.5-35.5-36.1-35.5h0Z"/>
        </g>
        <g>
            <path class="icon-1" d="M134.35,131.95c-5,5-13.1,5-18.1,0-.6-.6-1.1-1.3-1.6-2,3.9-1.6,7.5-3.9,10.7-7.1,3.1-3.1,5.5-6.8,7.1-10.7.7.5,1.4,1,2,1.6,4.9,5.1,4.9,13.2-.1,18.2Z"/>
            <path class="icon-2" d="M112.15,69.85c-11-3.4-23.4-.7-32,7.9-8.7,8.7-11.3,21.1-7.9,32-16.2,3.3-33.7-1.4-46.3-14-20-20-20-52.3,0-72.3s52.3-20,72.3,0c12.6,12.7,17.2,30.2,13.9,46.4h0Z"/>
            <path class="icon-3" d="M112.15,69.85c-1.9,9.5-6.6,18.6-14,26s-16.5,12-26,14c-3.4-11-.7-23.4,7.9-32,8.8-8.8,21.2-11.4,32.1-8h0Z"/>
            <path class="icon-4" d="M132.35,112.25c-5-3.3-11.7-2.8-16.1,1.6s-4.9,11.1-1.6,16.1c-11.5,4.6-25.2,2.3-34.5-7.1-3.8-3.8-6.5-8.3-7.9-13.2,9.5-1.9,18.6-6.6,26-14s12.1-16.5,14-26c4.8,1.5,9.3,4.1,13.2,7.9,9.2,9.5,11.6,23.2,6.9,34.7h0Z"/>
            <path class="icon-5" d="M132.35,112.25c-1.6,3.9-3.9,7.5-7.1,10.7-3.1,3.1-6.8,5.5-10.7,7.1-3.3-5-2.8-11.7,1.6-16.1,4.5-4.4,11.3-5,16.2-1.7Z"/>
        </g>
    </g>
</svg>
