<svg xmlns="http://www.w3.org/2000/svg" version="1.1" width="1000" height="1000" viewBox="0 0 1000 1000">
    <style>
        #light-icon {
        display: inline;
        }
        #dark-icon {
        display: none;
        }

        @media (prefers-color-scheme: dark) {
        #light-icon {
        display: none;
        }
        #dark-icon {
        display: inline;
        }
        }
    </style>
    <defs>
        <style type="text/css">
            .st1{fill:#2857F3;}
            .st2{fill:#FFBCD8;}
            .st3{fill:#E00522;}
            .st4{fill:#F65523;}
            .st5{fill:#0026BA;}
            .st1-dark{fill:#7c7c7c;}
            .st2-dark{fill:#c9c9c9;}
            .st3-dark{fill:#676767;}
            .st4-dark{fill:#838383;}
            .st5-dark{fill:#343434;}
        </style>
    </defs>
    <g id="light-icon" transform="scale(7.8431) translate(-123.59, -121.98)">
        <path class="st1" d="M247,245.2c-5,5-13.1,5-18.1,0c-0.6-0.6-1.1-1.3-1.6-2c3.9-1.6,7.5-3.9,10.7-7.1c3.1-3.1,5.5-6.8,7.1-10.7c0.7,0.5,1.4,1,2,1.6C252,232.1,252,240.2,247,245.2z"/>
        <path class="st2" d="M224.8,183.1c-11-3.4-23.4-0.7-32,7.9c-8.7,8.7-11.3,21.1-7.9,32c-16.2,3.3-33.7-1.4-46.3-14c-20-20-20-52.3,0-72.3s52.3-20,72.3,0C223.5,149.4,228.1,166.9,224.8,183.1L224.8,183.1z"/>
        <path class="st3" d="M224.8,183.1c-1.9,9.5-6.6,18.6-14,26s-16.5,12-26,14c-3.4-11-0.7-23.4,7.9-32C201.5,182.3,213.9,179.7,224.8,183.1L224.8,183.1z"/>
        <path class="st4" d="M245,225.5c-5-3.3-11.7-2.8-16.1,1.6c-4.4,4.4-4.9,11.1-1.6,16.1c-11.5,4.6-25.2,2.3-34.5-7.1c-3.8-3.8-6.5-8.3-7.9-13.2c9.5-1.9,18.6-6.6,26-14s12.1-16.5,14-26c4.8,1.5,9.3,4.1,13.2,7.9C247.3,200.3,249.7,214,245,225.5L245,225.5z"/>
        <path class="st5" d="M245,225.5c-1.6,3.9-3.9,7.5-7.1,10.7c-3.1,3.1-6.8,5.5-10.7,7.1c-3.3-5-2.8-11.7,1.6-16.1C233.3,222.8,240.1,222.2,245,225.5z"/>
    </g>
    <g id="dark-icon" transform="scale(7.8431) translate(-123.59, -121.98)">
        <path class="st1-dark" d="M247,245.2c-5,5-13.1,5-18.1,0c-0.6-0.6-1.1-1.3-1.6-2c3.9-1.6,7.5-3.9,10.7-7.1c3.1-3.1,5.5-6.8,7.1-10.7c0.7,0.5,1.4,1,2,1.6C252,232.1,252,240.2,247,245.2z"/>
        <path class="st2-dark" d="M224.8,183.1c-11-3.4-23.4-0.7-32,7.9c-8.7,8.7-11.3,21.1-7.9,32c-16.2,3.3-33.7-1.4-46.3-14c-20-20-20-52.3,0-72.3s52.3-20,72.3,0C223.5,149.4,228.1,166.9,224.8,183.1L224.8,183.1z"/>
        <path class="st3-dark" d="M224.8,183.1c-1.9,9.5-6.6,18.6-14,26s-16.5,12-26,14c-3.4-11-0.7-23.4,7.9-32C201.5,182.3,213.9,179.7,224.8,183.1L224.8,183.1z"/>
        <path class="st4-dark" d="M245,225.5c-5-3.3-11.7-2.8-16.1,1.6c-4.4,4.4-4.9,11.1-1.6,16.1c-11.5,4.6-25.2,2.3-34.5-7.1c-3.8-3.8-6.5-8.3-7.9-13.2c9.5-1.9,18.6-6.6,26-14s12.1-16.5,14-26c4.8,1.5,9.3,4.1,13.2,7.9C247.3,200.3,249.7,214,245,225.5L245,225.5z"/>
        <path class="st5-dark" d="M245,225.5c-1.6,3.9-3.9,7.5-7.1,10.7c-3.1,3.1-6.8,5.5-10.7,7.1c-3.3-5-2.8-11.7,1.6-16.1C233.3,222.8,240.1,222.2,245,225.5z"/>
    </g>
</svg>
