<?xml version="1.0" encoding="UTF-8"?>
<svg width="597px" height="559px" viewBox="0 0 597 559" version="1.1" xmlns="http://www.w3.org/2000/svg" xmlns:xlink="http://www.w3.org/1999/xlink">
    <!-- Generator: Sketch 43.2 (39069) - http://www.bohemiancoding.com/sketch -->
    <title>Group 2</title>
    <desc>Created with Sketch.</desc>
    <defs>
        <radialGradient cx="69.2772488%" cy="51.9214468%" fx="69.2772488%" fy="51.9214468%" r="78.2520736%" gradientTransform="translate(0.692772,0.519214),scale(0.934781,1.000000),translate(-0.692772,-0.519214)" id="radialGradient-1">
            <stop stop-color="#C4EBFF" offset="0%"></stop>
            <stop stop-color="#8AD8FF" offset="100%"></stop>
        </radialGradient>
        <radialGradient cx="100%" cy="95.5010445%" fx="100%" fy="95.5010445%" r="54.1970167%" gradientTransform="translate(1.000000,0.955010),scale(0.931431,1.000000),translate(-1.000000,-0.955010)" id="radialGradient-2">
            <stop stop-color="#C4EBFF" offset="0%"></stop>
            <stop stop-color="#9BDDFF" offset="100%"></stop>
        </radialGradient>
    </defs>
    <g id="Page-1" stroke="none" stroke-width="1" fill="none" fill-rule="evenodd">
        <g id="Group-2">
            <rect id="Rectangle-path" fill="url(#radialGradient-1)" fill-rule="nonzero" x="0" y="0" width="596.931217" height="558"></rect>
            <polygon id="Shape" fill="url(#radialGradient-2)" fill-rule="nonzero" opacity="0.7" style="mix-blend-mode: color-burn;" points="596.931217 270.118729 337.460317 277.752596 596.931217 228.132459 596.931217 185.764496 336.084656 265.156715 596.931217 146.959003 596.931217 99.2473328 326.560847 252.433603 596.931217 30.6697585 596.931217 2.1699873 551.746032 2.1699873 320.846561 245.817584 492.169312 2.1699873 436.825397 2.1699873 316.190476 230.54985 387.407407 2.1699873 346.560847 2.1699873 302.010582 229.786463 322.222222 2.1699873 279.78836 2.1699873 289.62963 219.353511 249.312169 2.1699873 207.195767 2.1699873 275.026455 224.315525 159.365079 2.1699873 104.761905 2.1699873 275.343915 239.201566 45.8201058 2.1699873 0 2.1699873 0 29.5246784 268.888889 249.507287 0 97.5933285 0 144.796074 257.566138 257.904541 0 183.347104 0 225.460605 257.883598 274.699049 0 267.065182 0 301.799278 248.042328 287.167699 0 330.807974 0 372.794244 253.227513 298.745731 0 411.345274 0 458.675251 268.888889 306.379598 0 526.998362 0 558.169987 42.2222222 558.169987 263.809524 331.444129 102.222222 558.169987 157.671958 558.169987 275.873016 335.388294 207.513228 558.169987 248.465608 558.169987 288.148148 336.533374 273.121693 558.169987 315.661376 558.169987 305.820106 339.586921 346.455026 558.169987 387.089947 558.169987 315.132275 334.370445 436.402116 558.169987 491.640212 558.169987 322.962963 321.774564 551.216931 558.169987 596.931217 558.169987 596.931217 530.560834 326.560847 309.433145 596.931217 462.110491 596.931217 414.907745 345.608466 307.142985 596.931217 376.229484 596.931217 334.243214 350.899471 295.564953 596.931217 305.48898"></polygon>
            <g id="Imported-Layers" transform="translate(174.000000, 44.000000)" fill-rule="nonzero">
                <path d="M69.9325714,323.996079 C69.9325714,323.996079 69.5461714,204.43379 68.2111038,144.776969 C67.6940863,121.674303 64.3763161,75.7176181 64.3763161,75.7176181 L173.651471,67.0983878 L173.651471,323.996079 L69.9325714,323.996079 Z" id="Fill-11" fill="#F2D3B3"></path>
                <path d="M69.9325714,323.996079 L68.0471838,133.734444 L74.6384385,130.672021 C74.6384385,130.672021 67.2166701,146.387632 73.3426337,148.42785 C80.2886641,150.740951 142.809623,149.552067 165.980602,148.42785 C172.088616,148.131483 169.489641,138.296326 169.838854,134.990755 C171.165173,135.022358 171.947731,134.008545 172.623758,134.990755 C175.095145,138.581472 174.054086,148.426221 174.017946,148.42785 L173.651471,323.996079 L69.9325714,323.996079 Z" id="Fill-12" fill="#E2BB98"></path>
                <polyline id="Fill-13" fill="#CEA282" points="127.579431 219.526352 91.4630608 202.323445 123.315088 207.063957 146.873732 202.323445 127.579432 221.291579"></polyline>
                <polygon id="Fill-14" fill="#4097D5" points="69.9362032 356.446642 114.887911 364 125.017107 357.82024 134.165459 364 173.816422 357.820244 173.816422 227.333872 123.500001 252.899902 67.5975502 220"></polygon>
                <path d="M127.331099,259.640012 C127.331099,261.67952 125.676029,263.332445 123.634753,263.332445 C121.593476,263.332445 119.939118,261.67952 119.939118,259.640012 C119.939118,257.601215 121.593476,255.947579 123.634753,255.947579 C125.676029,255.947579 127.331099,257.601215 127.331099,259.640012" id="Fill-15" fill="#E8F3F9"></path>
                <path d="M128.466356,293.765882 C128.466356,295.80539 126.811286,297.458315 124.770009,297.458315 C122.728733,297.458315 121.074374,295.80539 121.074374,293.765882 C121.074374,291.726374 122.728733,290.073449 124.770009,290.073449 C126.811286,290.073449 128.466356,291.726374 128.466356,293.765882" id="Fill-16" fill="#E8F3F9"></path>
                <path d="M129.878179,327.688512 C129.878179,329.72802 128.223109,331.380945 126.181833,331.380945 C124.140556,331.380945 122.486198,329.72802 122.486198,327.688512 C122.486198,325.649004 124.140556,323.996079 126.181833,323.996079 C128.223109,323.996079 129.878179,325.649004 129.878179,327.688512" id="Fill-17" fill="#E8F3F9"></path>
                <polyline id="Fill-18" fill="#79BFF2" points="111.485708 237.681547 119.125915 252.918163 104.809951 246.617719 111.485708 237.681547"></polyline>
                <polyline id="Fill-19" fill="#79BFF2" points="134.05355 237.681547 126.182188 253.611738 138.734973 246.78898 134.05355 237.681547"></polyline>
                <polygon id="Fill-20" fill="#82CCF9" points="111.736282 237.902884 100.195071 252.222267 67.628845 221.060624 67.4631246 213.656571"></polygon>
                <polyline id="Fill-21" fill="#82CCF9" points="133.866398 237.815501 174.266056 221.291579 174.266056 231.932551 141.805674 252.425255"></polyline>
                <path d="M73.2341763,123.550118 C73.2341763,131.725915 66.600383,138.353961 58.4174954,138.353961 C50.2338967,138.353961 43.6001033,131.725915 43.6001033,123.550118 C43.6001033,115.37361 50.2338967,108.745565 58.4174954,108.745565 C66.600383,108.745565 73.2341763,115.37361 73.2341763,123.550118" id="Fill-22" fill="#F2D3B3"></path>
                <path d="M195.568523,122.839488 C195.568523,131.015285 188.934729,137.643331 180.751842,137.643331 C172.568243,137.643331 165.93445,131.015285 165.93445,122.839488 C165.93445,114.66298 172.568243,108.034935 180.751842,108.034935 C188.934729,108.034935 195.568523,114.66298 195.568523,122.839488" id="Fill-22-Copy" fill="#F2D3B3"></path>
                <path d="M53.4949605,69.2572815 C55.6557264,48.2851713 60.9033009,48.2960375 60.9033009,48.2960375 L62.524231,56.149002 C62.524231,56.149002 58.8869168,32.9569278 88.7279624,29.9630439 C112.462502,27.5822339 116.135302,25.2989482 120.078364,18.4125318 C125.661412,8.66194058 116.315486,0.85525311 116.315486,0.85525311 C113.552982,-2.96207028 133.69166,10.6004669 145.783246,26.7346741 C147.902524,29.5624967 163.799863,27.374918 171.501325,37.4760128 C173.780139,40.4648623 175.049916,43.7613402 175.049916,43.7613402 C175.049916,43.7613402 171.501325,34.3989297 175.049916,38.615519 C178.598507,42.8321083 192.777747,65.8542616 190.864031,79.127223 C187.586242,101.860979 174.715141,127.665641 172.610564,128.763583 C171.623847,129.278345 170.077607,129.545562 169.72576,127.155568 C168.85399,121.233882 173.251429,106.811077 172.610564,95.7695293 C172.193604,88.5856763 175.41224,85.1073409 172.610564,82.0652618 C167.147362,76.1332801 143.686398,78.8366819 140.313228,79.1272205 C122.409027,80.6692874 92.1424998,79.127223 92.1424998,79.127223 C92.1424998,79.127223 78.5862153,82.0669162 73.6473217,86.2304969 C70.2278127,89.1132591 66.0115422,90.1008911 67.4588565,99.0329445 C69.7534251,113.193801 77.0338329,131.303541 76.0771438,132.636947 L71.089769,132.636943 C71.089769,132.636943 69.8479331,120.080112 67.4588571,115.366504 C64.8393374,110.199514 60.9033009,108.96586 60.9033009,108.96586 C60.9033009,108.96586 51.3341945,90.2301024 53.4949605,69.2572815 Z" id="Fill-23" fill="#442211"></path>
                <path d="M116.351873,0.570127185 C118.495532,0.570127185 144.049097,28.5951993 137.184389,52.6220068 C130.319682,76.6488143 103.933629,73.4558162 103.933629,73.4558162 C103.933629,73.4558162 120.980236,68.8025362 126.570568,49.2361051 C132.1609,29.6696739 127.057466,21.4160541 127.057466,21.4160541" id="Fill-24" fill="#603719"></path>
                <polyline id="Fill-25" fill="#442211" points="75.9049058 134.549248 71.2127788 137.980169 71.1672948 136.05223 75.7570829 133.122303 75.9049058 134.549248"></polyline>
                <polyline id="Fill-25-Copy" fill="#442211" transform="translate(170.976831, 130.814888) scale(-1, 1) translate(-170.976831, -130.814888) " points="173.345636 130.300995 168.653509 132.060622 168.608025 131.071834 173.197813 129.569154 173.345636 130.300995"></polyline>
                <path d="M93.9991691,106.118161 C80.5708408,106.349826 70.530811,109.874551 70.5087623,112.512409 C70.47889,116.027895 74.8117874,135.363897 92.1925108,135.363897 C93.1093072,135.363897 93.9984589,135.467648 94.9906473,135.363897 C111.670082,133.609351 118.688623,115.056464 118.456756,112.512409 C118.231291,110.030889 107.877005,106.109633 94.9906463,106.109633 C94.6634731,106.109633 94.3320323,106.112476 93.9991691,106.118161 Z" id="Fill-26" fill="#F8F3ED"></path>
                <path d="M149.075998,104.011184 C134.659764,104.270585 130.731373,108.225398 130.707703,111.179067 C130.675633,115.115436 128.979554,135.135312 147.638956,135.135312 C148.6232,135.135312 149.647913,135.079613 150.713096,134.963439 C168.619616,132.998836 175.919371,110.970753 175.670447,108.122118 C175.428394,105.343505 163.97481,104.001636 150.140417,104.001636 C149.789174,104.001636 149.43335,104.004819 149.075998,104.011184 Z" id="Fill-26-Copy" fill="#F8F3ED"></path>
                <path d="M174.830055,103.490262 C168.760841,102.840378 158.610988,100.880659 152.050943,101.343415 C142.025296,102.051314 129.169427,107.989036 121.708747,107.753552 C114.248067,107.517345 111.715567,101.579623 94.9290372,101.343415 C78.1417912,101.107932 72.312777,105.589358 66.7172671,106.061049 C61.1217572,106.53274 66.0181865,115.023177 67.4170639,117.617115 C68.8159414,120.211777 72.5462818,139.567927 94.9290376,138.152854 C117.311793,136.737781 116.361368,114.071624 123.588543,114.543315 C129.875255,114.954142 132.000365,138.62382 152.050943,138.152854 C172.102236,137.680439 179.319689,106.061049 179.319689,106.061049 C179.319689,106.061049 178.035692,103.833518 174.830055,103.490262 Z M94.6173073,134.515833 C76.0562317,136.638765 71.7492565,116.62524 71.7786011,112.851783 C71.7992756,110.162252 80.5959623,106.568484 93.1874289,106.33228 C105.778229,106.096801 114.372171,110.695521 114.588921,113.290136 C114.806337,115.884025 110.257269,132.727643 94.6173073,134.515833 L94.6173073,134.515833 Z M132.295498,112.614486 C132.53476,109.557104 142.895413,106.931278 151.495654,106.433456 C160.095894,105.936416 172.574038,106.651537 172.998252,109.820851 C173.714572,115.17714 164.126661,133.961635 150.779334,133.962418 C136.206337,133.963983 132.056969,115.671868 132.295498,112.614486 Z" id="Fill-29" fill="#000000"></path>
                <path d="M117.620329,127.378281 C117.620329,127.378281 112.316525,138.272924 113.732352,141.398504 C115.14761,144.523566 125.762612,143.073126 128.788238,141.619573 C131.813863,140.167058 131.322391,131.432247 131.322391,131.432247 C131.322391,131.432247 133.544255,139.877489 130.30361,143.509556 C127.063534,147.141103 113.059422,147.417699 111.207869,143.701564 C109.355747,139.98491 117.620329,127.378281 117.620329,127.378281" id="Fill-30" fill="#C69E87"></path>
                <polyline id="Fill-35" fill="#442211" points="95.6071368 99.8399508 111.034778 98.7377638 104.494869 93.6318878 95.6071368 99.8399508"></polyline>
                <polyline id="Fill-36" fill="#442211" points="141.614097 93.9808071 135.569927 99.0824193 148.442061 98.6986791 141.614097 93.9808071"></polyline>
                <path d="M114.483748,171.482422 C114.304152,177.615182 123.176641,183.987089 126.464529,182.240854 C129.751244,180.494619 132.843984,180.388073 133.199653,176.385761 C133.555323,172.383449 131.487395,173.671497 127.531599,171.482422 C125.287145,171.482422 114.725556,163.238058 114.483748,171.482422 Z" id="Fill-37" fill="#442F26" transform="translate(123.860037, 175.176100) scale(-1, 1) translate(-123.860037, -175.176100) "></path>
                <path d="M188.489058,227.396973 L140.826747,229.609375 C140.826747,229.609375 211.437698,280.807337 208.191005,281.750103 C204.54847,282.807812 205.997688,286.826946 205.541499,288.701172 C204.631274,292.440774 205.14304,294.561309 205.541498,296.021686 C206.140367,298.213268 217.368608,306.049383 217.368608,306.049383 C217.368608,306.049383 220.752908,314.240236 221.151917,318.22616 C221.550927,322.212083 227.263466,329.034705 227.662475,322.657512 C228.061484,316.279609 224.996448,305.209285 225.794466,300.027372 C226.592484,294.845458 227.107702,306.969649 231.574328,302.358371 C235.130559,298.686546 237.442109,288.915385 235.367404,281.750103 C234.561562,278.965145 217.368609,275.009766 217.368609,275.009766 L181.709559,244.729492 L205.541499,240.794922" id="Fill-58-Copy" fill="#F2CCAA" transform="translate(188.489057, 276.331937) scale(-1, 1) translate(-188.489057, -276.331937) "></path>
                <path d="M64.8956592,234.907603 C62.818109,234.857859 1.67903002,256.764294 0.0388962766,258.039164 C0.0388962766,258.039164 72.5431888,293.485943 69.2964952,294.428709 C58.3860896,297.596844 64.2975011,308.755134 64.8956592,310.947428 C65.4945285,313.13901 79.0751133,314.63844 79.0751133,314.63844 C79.0751133,314.63844 80.2714294,327.260649 80.6704386,331.246572 C81.0694477,335.232495 85.0588276,337.623765 85.4578367,331.246572 C85.8568459,324.868669 86.0815997,307.660765 86.8796179,302.478852 C87.6776361,297.296938 94.3256544,299.658362 89.3689796,304.610741 C84.9236908,309.052179 88.8142076,315.558706 93.2808337,310.947429 C96.8370647,307.275604 99.1486149,297.504442 97.0739097,290.339161 C96.2680677,287.554202 79.075113,287.015623 79.075113,287.015623 L33.5136735,260.215821 L69.2964951,247.843288" id="Fill-58" fill="#F2CCAA"></path>
                <polygon id="Fill-41" fill="#4197D5" points="39.8797964 234.308009 46.7838855 260.331454 87.5666315 251.593526 67.9417933 225.854533"></polygon>
                <polygon id="Fill-41-Copy" fill="#4197D5" transform="translate(179.364985, 238.724030) scale(-1, 1) translate(-179.364985, -238.724030) " points="153.679189 225.854533 167.063954 251.593526 205.050781 251.593526 185.425943 225.854533"></polygon>
            </g>
            <g id="Group" transform="translate(223.000000, 393.000000)" fill-rule="nonzero">
                <rect id="Rectangle-1" fill="#4A4A4A" x="0" y="5.84615385" width="159" height="13.1538462"></rect>
                <rect id="Rectangle-2" fill="#DDDDDD" x="2.89090909" y="0" width="6.50454545" height="5.84615385"></rect>
                <rect id="Rectangle-2-Copy" fill="#DDDDDD" x="12.2863636" y="0" width="6.50454545" height="5.84615385"></rect>
                <rect id="Rectangle-2-Copy-2" fill="#DDDDDD" x="21.6818182" y="0" width="6.50454545" height="5.84615385"></rect>
                <rect id="Rectangle-2-Copy-3" fill="#DDDDDD" x="31.0772727" y="0" width="6.50454545" height="5.84615385"></rect>
                <rect id="Rectangle-2-Copy-4" fill="#DDDDDD" x="40.4727273" y="0" width="6.50454545" height="5.84615385"></rect>
                <rect id="Rectangle-2-Copy-5" fill="#DDDDDD" x="49.8681818" y="0" width="6.50454545" height="5.84615385"></rect>
                <rect id="Rectangle-2-Copy-6" fill="#DDDDDD" x="59.2636364" y="0" width="6.50454545" height="5.84615385"></rect>
                <rect id="Rectangle-2-Copy-7" fill="#DDDDDD" x="68.6590909" y="0" width="6.50454545" height="5.84615385"></rect>
                <rect id="Rectangle-2-Copy-8" fill="#DDDDDD" x="78.0545455" y="0" width="6.50454545" height="5.84615385"></rect>
                <rect id="Rectangle-2-Copy-9" fill="#DDDDDD" x="87.45" y="0" width="6.50454545" height="5.84615385"></rect>
                <rect id="Rectangle-2-Copy-10" fill="#DDDDDD" x="96.8454545" y="0" width="6.50454545" height="5.84615385"></rect>
                <rect id="Rectangle-2-Copy-11" fill="#DDDDDD" x="106.240909" y="0" width="6.50454545" height="5.84615385"></rect>
                <rect id="Rectangle-2-Copy-12" fill="#DDDDDD" x="114.913636" y="0" width="6.50454545" height="5.84615385"></rect>
                <rect id="Rectangle-2-Copy-13" fill="#DDDDDD" x="123.586364" y="0" width="6.50454545" height="5.84615385"></rect>
                <rect id="Rectangle-2-Copy-14" fill="#DDDDDD" x="132.259091" y="0" width="6.50454545" height="5.84615385"></rect>
                <rect id="Rectangle-2-Copy-15" fill="#DDDDDD" x="140.931818" y="0" width="6.50454545" height="5.84615385"></rect>
                <rect id="Rectangle-2-Copy-16" fill="#DDDDDD" x="149.604545" y="0" width="6.50454545" height="5.84615385"></rect>
            </g>
            <g id="Oval-1-+-Oval-1-Copy-+-Oval-1-Copy-2" transform="translate(163.000000, 391.000000)" fill-rule="nonzero">
                <path d="M5.68434189e-14,21.2604167 L39.1111111,21.2604167 L39.1111111,11.1111111 C39.1111111,4.97461389 30.3557907,0 19.5555556,0 C8.75532045,0 5.68434189e-14,4.97461389 5.68434189e-14,11.1111111 L5.68434189e-14,21.2604167 Z" id="Oval-1" fill="#4A4A4A"></path>
                <path d="M18.6666667,10.8802083 L18.6666667,1.70081017 C18.6666667,1.70081017 12.3186493,1.47323768 6.89885659,3.90682877 C4.56394778,4.9552477 5.66189238,10.8802083 5.66189238,10.8802083 L18.6666667,10.8802083 Z" id="Oval-1-Copy" fill="#9B9B9B"></path>
                <path d="M33.7777768,10.8802083 L33.7777768,1.70081017 C33.7777768,1.70081017 27.4297595,1.47323768 22.0099667,3.90682877 C19.6750579,4.9552477 20.7730025,10.8802083 20.7730025,10.8802083 L33.7777768,10.8802083 Z" id="Oval-1-Copy-2" fill="#9B9B9B" transform="translate(27.146440, 6.287685) scale(-1, 1) translate(-27.146440, -6.287685) "></path>
            </g>
            <path d="M68.256,468.08 C67.8293312,468.08 67.616,468.293331 67.616,468.72 L67.616,484.72 C67.616,485.061335 67.4880013,485.359999 67.232,485.616 C66.9759987,485.872001 66.677335,486 66.336,486 L62.816,486 C62.474665,486 62.1760013,485.872001 61.92,485.616 C61.6639987,485.359999 61.536,485.061335 61.536,484.72 L61.536,442.48 C61.536,442.138665 61.6639987,441.840001 61.92,441.584 C62.1760013,441.327999 62.474665,441.2 62.816,441.2 L74.336,441.2 C76.1706758,441.2 77.9093251,441.551996 79.552,442.256 C81.1946749,442.960004 82.6239939,443.919994 83.84,445.136 C85.0560061,446.352006 86.0159965,447.781325 86.72,449.424 C87.4240035,451.066675 87.776,452.805324 87.776,454.64 C87.776,457.072012 87.1573395,459.301323 85.92,461.328 C84.6826605,463.354677 83.0826765,464.943994 81.12,466.096 C80.5226637,466.437335 80.1173344,466.778665 79.904,467.12 C79.6906656,467.461335 79.7333318,467.930664 80.032,468.528 L87.584,484.08 C87.7973344,484.549336 87.808001,484.986665 87.616,485.392 C87.423999,485.797335 87.0080032,486 86.368,486 L82.784,486 C82.2719974,486 81.8880013,485.882668 81.632,485.648 C81.3759987,485.413332 81.1413344,485.104002 80.928,484.72 L73.376,468.848 C73.2906662,468.634666 73.152001,468.453334 72.96,468.304 C72.767999,468.154666 72.501335,468.08 72.16,468.08 L68.256,468.08 Z M68.256,447.28 C67.8293312,447.28 67.616,447.493331 67.616,447.92 L67.616,461.36 C67.616,461.786669 67.8293312,462 68.256,462 L74.336,462 C75.3600051,462 76.309329,461.808002 77.184,461.424 C78.058671,461.039998 78.8373299,460.50667 79.52,459.824 C80.2026701,459.14133 80.7359981,458.362671 81.12,457.488 C81.5040019,456.613329 81.696,455.664005 81.696,454.64 C81.696,453.615995 81.5040019,452.666671 81.12,451.792 C80.7359981,450.917329 80.2026701,450.13867 79.52,449.456 C78.8373299,448.77333 78.058671,448.240002 77.184,447.856 C76.309329,447.471998 75.3600051,447.28 74.336,447.28 L68.256,447.28 Z M100.896,479.28 C100.896,479.706669 101.109331,479.92 101.536,479.92 L116.896,479.92 C117.237335,479.92 117.535999,480.047999 117.792,480.304 C118.048001,480.560001 118.176,480.858665 118.176,481.2 L118.176,484.72 C118.176,485.061335 118.048001,485.359999 117.792,485.616 C117.535999,485.872001 117.237335,486 116.896,486 L96.096,486 C95.754665,486 95.4560013,485.872001 95.2,485.616 C94.9439987,485.359999 94.816,485.061335 94.816,484.72 L94.816,442.48 C94.816,442.138665 94.9439987,441.840001 95.2,441.584 C95.4560013,441.327999 95.754665,441.2 96.096,441.2 L116.768,441.2 C117.109335,441.2 117.407999,441.327999 117.664,441.584 C117.920001,441.840001 118.048,442.138665 118.048,442.48 L118.048,446 C118.048,446.341335 117.920001,446.639999 117.664,446.896 C117.407999,447.152001 117.109335,447.28 116.768,447.28 L101.536,447.28 C101.109331,447.28 100.896,447.493331 100.896,447.92 L100.896,459.44 C100.896,459.866669 101.109331,460.08 101.536,460.08 L116.064,460.08 C116.405335,460.08 116.703999,460.207999 116.96,460.464 C117.216001,460.720001 117.344,461.018665 117.344,461.36 L117.344,464.88 C117.344,465.221335 117.216001,465.519999 116.96,465.776 C116.703999,466.032001 116.405335,466.16 116.064,466.16 L101.536,466.16 C101.109331,466.16 100.896,466.373331 100.896,466.8 L100.896,479.28 Z M140.32,468.4 C140.789336,468.4 140.960001,468.165336 140.832,467.696 L136.672,449.84 C136.586666,449.583999 136.501334,449.456 136.416,449.456 L136.288,449.456 C136.159999,449.456 136.074667,449.583999 136.032,449.84 L131.872,467.696 C131.743999,468.165336 131.914664,468.4 132.384,468.4 L140.32,468.4 Z M142.88,475.248 C142.751999,474.650664 142.34667,474.352 141.664,474.352 L131.04,474.352 C130.442664,474.352 130.037334,474.650664 129.824,475.248 L127.008,485.04 C126.794666,485.680003 126.389336,486 125.792,486 L122.272,486 C121.759997,486 121.397334,485.861335 121.184,485.584 C120.970666,485.306665 120.906666,485.018668 120.992,484.72 L132.896,442.16 C133.024001,441.519997 133.42933,441.2 134.112,441.2 L138.592,441.2 C139.27467,441.2 139.679999,441.519997 139.808,442.16 L151.712,484.72 C151.797334,485.018668 151.733334,485.306665 151.52,485.584 C151.306666,485.861335 150.944003,486 150.432,486 L146.912,486 C146.314664,486 145.909334,485.680003 145.696,485.04 L142.88,475.248 Z M162.848,447.28 C162.421331,447.28 162.208,447.493331 162.208,447.92 L162.208,479.28 C162.208,479.706669 162.421331,479.92 162.848,479.92 L169.568,479.92 C170.549338,479.92 171.466662,479.717335 172.32,479.312 C173.173338,478.906665 173.919997,478.36267 174.56,477.68 C175.200003,476.99733 175.722665,476.218671 176.128,475.344 C176.533335,474.469329 176.799999,473.541338 176.928,472.56 C177.098668,471.279994 177.216,469.872008 177.28,468.336 C177.344,466.799992 177.376,465.232008 177.376,463.632 C177.376,462.031992 177.344,460.453341 177.28,458.896 C177.216,457.338659 177.098668,455.920006 176.928,454.64 C176.799999,453.701329 176.533335,452.784004 176.128,451.888 C175.722665,450.991996 175.200003,450.20267 174.56,449.52 C173.919997,448.83733 173.173338,448.293335 172.32,447.888 C171.466662,447.482665 170.549338,447.28 169.568,447.28 L162.848,447.28 Z M169.568,441.2 C171.402676,441.2 173.098659,441.551996 174.656,442.256 C176.213341,442.960004 177.567994,443.919994 178.72,445.136 C179.872006,446.352006 180.82133,447.781325 181.568,449.424 C182.31467,451.066675 182.794666,452.805324 183.008,454.64 C183.178668,455.920006 183.296,457.338659 183.36,458.896 C183.424,460.453341 183.456,462.031992 183.456,463.632 C183.456,465.232008 183.413334,466.799992 183.328,468.336 C183.242666,469.872008 183.136001,471.279994 183.008,472.56 C182.794666,474.394676 182.325337,476.133325 181.6,477.776 C180.874663,479.418675 179.925339,480.847994 178.752,482.064 C177.578661,483.280006 176.213341,484.239996 174.656,484.944 C173.098659,485.648004 171.402676,486 169.568,486 L157.408,486 C157.066665,486 156.768001,485.872001 156.512,485.616 C156.255999,485.359999 156.128,485.061335 156.128,484.72 L156.128,442.48 C156.128,442.138665 156.255999,441.840001 156.512,441.584 C156.768001,441.327999 157.066665,441.2 157.408,441.2 L169.568,441.2 Z M198.176,462.064 C198.346668,462.490669 198.517332,462.490669 198.688,462.064 L205.792,442.16 C206.005334,441.519997 206.410664,441.2 207.008,441.2 L211.232,441.2 C211.658669,441.2 211.989332,441.381332 212.224,441.744 C212.458668,442.106668 212.469334,442.522664 212.256,442.992 L201.504,470.576 L201.504,484.72 C201.504,485.061335 201.376001,485.359999 201.12,485.616 C200.863999,485.872001 200.565335,486 200.224,486 L196.64,486 C196.298665,486 196.000001,485.872001 195.744,485.616 C195.487999,485.359999 195.36,485.061335 195.36,484.72 L195.36,470.64 L184.48,442.992 C184.266666,442.522664 184.277332,442.106668 184.512,441.744 C184.746668,441.381332 185.077331,441.2 185.504,441.2 L189.728,441.2 C190.325336,441.2 190.730666,441.519997 190.944,442.16 L198.176,462.064 Z M219.936,484.72 C219.936,485.061335 219.808001,485.359999 219.552,485.616 C219.295999,485.872001 218.997335,486 218.656,486 L212.896,486 C212.554665,486 212.256001,485.872001 212,485.616 C211.743999,485.359999 211.616,485.061335 211.616,484.72 L211.616,478.96 C211.616,478.618665 211.743999,478.320001 212,478.064 C212.256001,477.807999 212.554665,477.68 212.896,477.68 L218.656,477.68 C218.997335,477.68 219.295999,477.807999 219.552,478.064 C219.808001,478.320001 219.936,478.618665 219.936,478.96 L219.936,484.72 Z M238.048,484.72 C238.048,485.061335 237.920001,485.359999 237.664,485.616 C237.407999,485.872001 237.109335,486 236.768,486 L231.008,486 C230.666665,486 230.368001,485.872001 230.112,485.616 C229.855999,485.359999 229.728,485.061335 229.728,484.72 L229.728,478.96 C229.728,478.618665 229.855999,478.320001 230.112,478.064 C230.368001,477.807999 230.666665,477.68 231.008,477.68 L236.768,477.68 C237.109335,477.68 237.407999,477.807999 237.664,478.064 C237.920001,478.320001 238.048,478.618665 238.048,478.96 L238.048,484.72 Z M256.16,484.72 C256.16,485.061335 256.032001,485.359999 255.776,485.616 C255.519999,485.872001 255.221335,486 254.88,486 L249.12,486 C248.778665,486 248.480001,485.872001 248.224,485.616 C247.967999,485.359999 247.84,485.061335 247.84,484.72 L247.84,478.96 C247.84,478.618665 247.967999,478.320001 248.224,478.064 C248.480001,477.807999 248.778665,477.68 249.12,477.68 L254.88,477.68 C255.221335,477.68 255.519999,477.807999 255.776,478.064 C256.032001,478.320001 256.16,478.618665 256.16,478.96 L256.16,484.72 Z M285.728,473.2 C285.728,471.706659 285.472003,470.512004 284.96,469.616 C284.447997,468.719996 283.722671,467.984003 282.784,467.408 C281.845329,466.831997 280.714673,466.373335 279.392,466.032 C278.069327,465.690665 276.597341,465.328002 274.976,464.944 C273.397325,464.602665 271.95734,464.101337 270.656,463.44 C269.35466,462.778663 268.234671,461.946672 267.296,460.944 C266.357329,459.941328 265.621336,458.75734 265.088,457.392 C264.554664,456.02666 264.288,454.469342 264.288,452.72 C264.288,450.79999 264.66133,449.093341 265.408,447.6 C266.15467,446.106659 267.14666,444.848005 268.384,443.824 C269.62134,442.799995 271.029325,442.021336 272.608,441.488 C274.186675,440.954664 275.807992,440.688 277.472,440.688 C279.349343,440.688 281.087992,441.007997 282.688,441.648 C284.288008,442.288003 285.674661,443.151995 286.848,444.24 C288.021339,445.328005 288.938663,446.597326 289.6,448.048 C290.261337,449.498674 290.592,451.055992 290.592,452.72 L290.592,453.552 C290.592,453.893335 290.464001,454.191999 290.208,454.448 C289.951999,454.704001 289.653335,454.832 289.312,454.832 L285.792,454.832 C285.450665,454.832 285.152001,454.704001 284.896,454.448 C284.639999,454.191999 284.512,453.893335 284.512,453.552 L284.512,452.72 C284.512,451.653328 284.298669,450.74667 283.872,450 C283.445331,449.25333 282.89067,448.634669 282.208,448.144 C281.52533,447.653331 280.768004,447.301334 279.936,447.088 C279.103996,446.874666 278.282671,446.768 277.472,446.768 C275.381323,446.768 273.68534,447.301328 272.384,448.368 C271.08266,449.434672 270.432,450.885324 270.432,452.72 C270.432,454.128007 270.74133,455.247996 271.36,456.08 C271.97867,456.912004 272.757329,457.573331 273.696,458.064 C274.634671,458.554669 275.669328,458.927999 276.8,459.184 C277.930672,459.440001 279.007995,459.695999 280.032,459.952 C283.658685,460.848004 286.538656,462.362656 288.672,464.496 C290.805344,466.629344 291.872,469.530648 291.872,473.2 C291.872,475.24801 291.466671,477.093325 290.656,478.736 C289.845329,480.378675 288.778673,481.775994 287.456,482.928 C286.133327,484.080006 284.597342,484.96533 282.848,485.584 C281.098658,486.20267 279.306676,486.512 277.472,486.512 C275.42399,486.512 273.514676,486.160004 271.744,485.456 C269.973324,484.751996 268.448006,483.792006 267.168,482.576 C265.887994,481.359994 264.885337,479.952008 264.16,478.352 C263.434663,476.751992 263.072,475.034676 263.072,473.2 L263.072,472.176 C263.072,471.834665 263.199999,471.536001 263.456,471.28 C263.712001,471.023999 264.010665,470.896 264.352,470.896 L267.936,470.896 C268.277335,470.896 268.575999,471.023999 268.832,471.28 C269.088001,471.536001 269.216,471.834665 269.216,472.176 L269.216,473.2 C269.216,474.224005 269.418665,475.183996 269.824,476.08 C270.229335,476.976004 270.80533,477.743997 271.552,478.384 C272.29867,479.024003 273.173328,479.525332 274.176,479.888 C275.178672,480.250668 276.277327,480.432 277.472,480.432 C278.666673,480.432 279.765328,480.250668 280.768,479.888 C281.770672,479.525332 282.64533,479.013337 283.392,478.352 C284.13867,477.690663 284.714665,476.922671 285.12,476.048 C285.525335,475.173329 285.728,474.224005 285.728,473.2 Z M304.032,479.28 C304.032,479.706669 304.245331,479.92 304.672,479.92 L320.032,479.92 C320.373335,479.92 320.671999,480.047999 320.928,480.304 C321.184001,480.560001 321.312,480.858665 321.312,481.2 L321.312,484.72 C321.312,485.061335 321.184001,485.359999 320.928,485.616 C320.671999,485.872001 320.373335,486 320.032,486 L299.232,486 C298.890665,486 298.592001,485.872001 298.336,485.616 C298.079999,485.359999 297.952,485.061335 297.952,484.72 L297.952,442.48 C297.952,442.138665 298.079999,441.840001 298.336,441.584 C298.592001,441.327999 298.890665,441.2 299.232,441.2 L319.904,441.2 C320.245335,441.2 320.543999,441.327999 320.8,441.584 C321.056001,441.840001 321.184,442.138665 321.184,442.48 L321.184,446 C321.184,446.341335 321.056001,446.639999 320.8,446.896 C320.543999,447.152001 320.245335,447.28 319.904,447.28 L304.672,447.28 C304.245331,447.28 304.032,447.493331 304.032,447.92 L304.032,459.44 C304.032,459.866669 304.245331,460.08 304.672,460.08 L319.2,460.08 C319.541335,460.08 319.839999,460.207999 320.096,460.464 C320.352001,460.720001 320.48,461.018665 320.48,461.36 L320.48,464.88 C320.48,465.221335 320.352001,465.519999 320.096,465.776 C319.839999,466.032001 319.541335,466.16 319.2,466.16 L304.672,466.16 C304.245331,466.16 304.032,466.373331 304.032,466.8 L304.032,479.28 Z M341.152,447.28 C340.725331,447.28 340.512,447.493331 340.512,447.92 L340.512,484.72 C340.512,485.061335 340.384001,485.359999 340.128,485.616 C339.871999,485.872001 339.573335,486 339.232,486 L335.712,486 C335.370665,486 335.072001,485.872001 334.816,485.616 C334.559999,485.359999 334.432,485.061335 334.432,484.72 L334.432,447.92 C334.432,447.493331 334.218669,447.28 333.792,447.28 L325.28,447.28 C324.938665,447.28 324.640001,447.152001 324.384,446.896 C324.127999,446.639999 324,446.341335 324,446 L324,442.48 C324,442.138665 324.127999,441.840001 324.384,441.584 C324.640001,441.327999 324.938665,441.2 325.28,441.2 L349.6,441.2 C349.941335,441.2 350.239999,441.327999 350.496,441.584 C350.752001,441.840001 350.88,442.138665 350.88,442.48 L350.88,446 C350.88,446.341335 350.752001,446.639999 350.496,446.896 C350.239999,447.152001 349.941335,447.28 349.6,447.28 L341.152,447.28 Z M358.56,484.72 C358.56,485.061335 358.432001,485.359999 358.176,485.616 C357.919999,485.872001 357.621335,486 357.28,486 L351.52,486 C351.178665,486 350.880001,485.872001 350.624,485.616 C350.367999,485.359999 350.24,485.061335 350.24,484.72 L350.24,478.96 C350.24,478.618665 350.367999,478.320001 350.624,478.064 C350.880001,477.807999 351.178665,477.68 351.52,477.68 L357.28,477.68 C357.621335,477.68 357.919999,477.807999 358.176,478.064 C358.432001,478.320001 358.56,478.618665 358.56,478.96 L358.56,484.72 Z M373.024,484.72 C373.024,485.061335 372.896001,485.359999 372.64,485.616 C372.383999,485.872001 372.085335,486 371.744,486 L365.984,486 C365.642665,486 365.344001,485.872001 365.088,485.616 C364.831999,485.359999 364.704,485.061335 364.704,484.72 L364.704,478.96 C364.704,478.618665 364.831999,478.320001 365.088,478.064 C365.344001,477.807999 365.642665,477.68 365.984,477.68 L371.744,477.68 C372.085335,477.68 372.383999,477.807999 372.64,478.064 C372.896001,478.320001 373.024,478.618665 373.024,478.96 L373.024,484.72 Z M387.552,484.72 C387.552,485.061335 387.424001,485.359999 387.168,485.616 C386.911999,485.872001 386.613335,486 386.272,486 L380.512,486 C380.170665,486 379.872001,485.872001 379.616,485.616 C379.359999,485.359999 379.232,485.061335 379.232,484.72 L379.232,478.96 C379.232,478.618665 379.359999,478.320001 379.616,478.064 C379.872001,477.807999 380.170665,477.68 380.512,477.68 L386.272,477.68 C386.613335,477.68 386.911999,477.807999 387.168,478.064 C387.424001,478.320001 387.552,478.618665 387.552,478.96 L387.552,484.72 Z M423.136,473.2 C423.136,474.992009 422.784004,476.687992 422.08,478.288 C421.375996,479.888008 420.384006,481.295994 419.104,482.512 C417.823994,483.728006 416.298676,484.698663 414.528,485.424 C412.757324,486.149337 410.826677,486.512 408.736,486.512 C406.81599,486.512 405.034675,486.20267 403.392,485.584 C401.749325,484.96533 400.298673,484.080006 399.04,482.928 C397.781327,481.775994 396.746671,480.378675 395.936,478.736 C395.125329,477.093325 394.592001,475.24801 394.336,473.2 C394.165332,471.919994 394.037334,470.437342 393.952,468.752 C393.866666,467.066658 393.824,465.338676 393.824,463.568 C393.824,461.797324 393.866666,460.080008 393.952,458.416 C394.037334,456.751992 394.165332,455.280006 394.336,454 C394.549334,452.250658 395.018663,450.576008 395.744,448.976 C396.469337,447.375992 397.439994,445.95734 398.656,444.72 C399.872006,443.48266 401.322658,442.501337 403.008,441.776 C404.693342,441.050663 406.602656,440.688 408.736,440.688 C410.65601,440.688 412.490658,440.986664 414.24,441.584 C415.989342,442.181336 417.51466,443.055994 418.816,444.208 C420.11734,445.360006 421.162663,446.757325 421.952,448.4 C422.741337,450.042675 423.136,451.909323 423.136,454 L423.136,454.896 C423.136,455.237335 423.008001,455.535999 422.752,455.792 C422.495999,456.048001 422.197335,456.176 421.856,456.176 L418.336,456.176 C417.994665,456.176 417.696001,456.048001 417.44,455.792 C417.183999,455.535999 417.056,455.237335 417.056,454.896 L417.056,454 C417.056,453.061329 416.864002,452.154671 416.48,451.28 C416.095998,450.405329 415.541337,449.637337 414.816,448.976 C414.090663,448.314663 413.216005,447.781335 412.192,447.376 C411.167995,446.970665 410.016006,446.768 408.736,446.768 C406.645323,446.768 404.810675,447.38666 403.232,448.624 C401.653325,449.86134 400.714668,451.653322 400.416,454 C400.245332,455.322673 400.117334,456.815992 400.032,458.48 C399.946666,460.144008 399.904,461.850658 399.904,463.6 C399.904,465.349342 399.946666,467.055992 400.032,468.72 C400.117334,470.384008 400.245332,471.877327 400.416,473.2 C400.544001,474.138671 400.810665,475.045329 401.216,475.92 C401.621335,476.794671 402.175996,477.562663 402.88,478.224 C403.584004,478.885337 404.426662,479.418665 405.408,479.824 C406.389338,480.229335 407.49866,480.432 408.736,480.432 C409.802672,480.432 410.837328,480.272002 411.84,479.952 C412.842672,479.631998 413.727996,479.173336 414.496,478.576 C415.264004,477.978664 415.882664,477.221338 416.352,476.304 C416.821336,475.386662 417.056,474.352006 417.056,473.2 L417.056,472.304 C417.056,471.962665 417.183999,471.664001 417.44,471.408 C417.696001,471.151999 417.994665,471.024 418.336,471.024 L421.856,471.024 C422.197335,471.024 422.495999,471.151999 422.752,471.408 C423.008001,471.664001 423.136,471.962665 423.136,472.304 L423.136,473.2 Z M443.488,480.432 C445.664011,480.432 447.509326,479.802673 449.024,478.544 C450.538674,477.285327 451.466665,475.504012 451.808,473.2 C451.978668,471.877327 452.117333,470.384008 452.224,468.72 C452.330667,467.055992 452.384,465.349342 452.384,463.6 C452.384,461.850658 452.330667,460.144008 452.224,458.48 C452.117333,456.815992 451.978668,455.322673 451.808,454 C451.679999,453.061329 451.413335,452.154671 451.008,451.28 C450.602665,450.405329 450.048004,449.637337 449.344,448.976 C448.639996,448.314663 447.808005,447.781335 446.848,447.376 C445.887995,446.970665 444.768006,446.768 443.488,446.768 C441.397323,446.768 439.562675,447.38666 437.984,448.624 C436.405325,449.86134 435.466668,451.653322 435.168,454 C434.997332,455.322673 434.869334,456.815992 434.784,458.48 C434.698666,460.144008 434.656,461.850658 434.656,463.6 C434.656,465.349342 434.698666,467.055992 434.784,468.72 C434.869334,470.384008 434.997332,471.877327 435.168,473.2 C435.296001,474.138671 435.562665,475.045329 435.968,475.92 C436.373335,476.794671 436.927996,477.562663 437.632,478.224 C438.336004,478.885337 439.178662,479.418665 440.16,479.824 C441.141338,480.229335 442.25066,480.432 443.488,480.432 Z M443.488,440.688 C445.40801,440.688 447.189325,440.99733 448.832,441.616 C450.474675,442.23467 451.925327,443.119994 453.184,444.272 C454.442673,445.424006 455.477329,446.821325 456.288,448.464 C457.098671,450.106675 457.631999,451.95199 457.888,454 C458.058668,455.280006 458.176,456.762658 458.24,458.448 C458.304,460.133342 458.336,461.850658 458.336,463.6 C458.336,465.349342 458.293334,467.066658 458.208,468.752 C458.122666,470.437342 458.016001,471.919994 457.888,473.2 C457.674666,474.949342 457.205337,476.634659 456.48,478.256 C455.754663,479.877341 454.784006,481.295994 453.568,482.512 C452.351994,483.728006 450.890675,484.698663 449.184,485.424 C447.477325,486.149337 445.578677,486.512 443.488,486.512 C441.56799,486.512 439.786675,486.20267 438.144,485.584 C436.501325,484.96533 435.050673,484.080006 433.792,482.928 C432.533327,481.775994 431.498671,480.378675 430.688,478.736 C429.877329,477.093325 429.344001,475.24801 429.088,473.2 C428.917332,471.919994 428.789334,470.437342 428.704,468.752 C428.618666,467.066658 428.576,465.338676 428.576,463.568 C428.576,461.797324 428.618666,460.080008 428.704,458.416 C428.789334,456.751992 428.917332,455.280006 429.088,454 C429.301334,452.250658 429.770663,450.576008 430.496,448.976 C431.221337,447.375992 432.191994,445.95734 433.408,444.72 C434.624006,443.48266 436.074658,442.501337 437.76,441.776 C439.445342,441.050663 441.354656,440.688 443.488,440.688 Z M472.16,447.28 C471.733331,447.28 471.52,447.493331 471.52,447.92 L471.52,479.28 C471.52,479.706669 471.733331,479.92 472.16,479.92 L478.88,479.92 C479.861338,479.92 480.778662,479.717335 481.632,479.312 C482.485338,478.906665 483.231997,478.36267 483.872,477.68 C484.512003,476.99733 485.034665,476.218671 485.44,475.344 C485.845335,474.469329 486.111999,473.541338 486.24,472.56 C486.410668,471.279994 486.528,469.872008 486.592,468.336 C486.656,466.799992 486.688,465.232008 486.688,463.632 C486.688,462.031992 486.656,460.453341 486.592,458.896 C486.528,457.338659 486.410668,455.920006 486.24,454.64 C486.111999,453.701329 485.845335,452.784004 485.44,451.888 C485.034665,450.991996 484.512003,450.20267 483.872,449.52 C483.231997,448.83733 482.485338,448.293335 481.632,447.888 C480.778662,447.482665 479.861338,447.28 478.88,447.28 L472.16,447.28 Z M478.88,441.2 C480.714676,441.2 482.410659,441.551996 483.968,442.256 C485.525341,442.960004 486.879994,443.919994 488.032,445.136 C489.184006,446.352006 490.13333,447.781325 490.88,449.424 C491.62667,451.066675 492.106666,452.805324 492.32,454.64 C492.490668,455.920006 492.608,457.338659 492.672,458.896 C492.736,460.453341 492.768,462.031992 492.768,463.632 C492.768,465.232008 492.725334,466.799992 492.64,468.336 C492.554666,469.872008 492.448001,471.279994 492.32,472.56 C492.106666,474.394676 491.637337,476.133325 490.912,477.776 C490.186663,479.418675 489.237339,480.847994 488.064,482.064 C486.890661,483.280006 485.525341,484.239996 483.968,484.944 C482.410659,485.648004 480.714676,486 478.88,486 L466.72,486 C466.378665,486 466.080001,485.872001 465.824,485.616 C465.567999,485.359999 465.44,485.061335 465.44,484.72 L465.44,442.48 C465.44,442.138665 465.567999,441.840001 465.824,441.584 C466.080001,441.327999 466.378665,441.2 466.72,441.2 L478.88,441.2 Z M505.952,479.28 C505.952,479.706669 506.165331,479.92 506.592,479.92 L521.952,479.92 C522.293335,479.92 522.591999,480.047999 522.848,480.304 C523.104001,480.560001 523.232,480.858665 523.232,481.2 L523.232,484.72 C523.232,485.061335 523.104001,485.359999 522.848,485.616 C522.591999,485.872001 522.293335,486 521.952,486 L501.152,486 C500.810665,486 500.512001,485.872001 500.256,485.616 C499.999999,485.359999 499.872,485.061335 499.872,484.72 L499.872,442.48 C499.872,442.138665 499.999999,441.840001 500.256,441.584 C500.512001,441.327999 500.810665,441.2 501.152,441.2 L521.824,441.2 C522.165335,441.2 522.463999,441.327999 522.72,441.584 C522.976001,441.840001 523.104,442.138665 523.104,442.48 L523.104,446 C523.104,446.341335 522.976001,446.639999 522.72,446.896 C522.463999,447.152001 522.165335,447.28 521.824,447.28 L506.592,447.28 C506.165331,447.28 505.952,447.493331 505.952,447.92 L505.952,459.44 C505.952,459.866669 506.165331,460.08 506.592,460.08 L521.12,460.08 C521.461335,460.08 521.759999,460.207999 522.016,460.464 C522.272001,460.720001 522.4,461.018665 522.4,461.36 L522.4,464.88 C522.4,465.221335 522.272001,465.519999 522.016,465.776 C521.759999,466.032001 521.461335,466.16 521.12,466.16 L506.592,466.16 C506.165331,466.16 505.952,466.373331 505.952,466.8 L505.952,479.28 Z M537.248,472.56 C537.248,472.901335 537.120001,473.199999 536.864,473.456 C536.607999,473.712001 536.309335,473.84 535.968,473.84 L532.384,473.84 C532.042665,473.84 531.744001,473.712001 531.488,473.456 C531.231999,473.199999 531.104,472.901335 531.104,472.56 L531.104,442.48 C531.104,442.138665 531.231999,441.840001 531.488,441.584 C531.744001,441.327999 532.042665,441.2 532.384,441.2 L535.968,441.2 C536.309335,441.2 536.607999,441.327999 536.864,441.584 C537.120001,441.840001 537.248,442.138665 537.248,442.48 L537.248,472.56 Z M538.144,484.72 C538.144,485.061335 538.016001,485.359999 537.76,485.616 C537.503999,485.872001 537.205335,486 536.864,486 L531.552,486 C531.210665,486 530.912001,485.872001 530.656,485.616 C530.399999,485.359999 530.272,485.061335 530.272,484.72 L530.272,479.408 C530.272,479.066665 530.399999,478.768001 530.656,478.512 C530.912001,478.255999 531.210665,478.128 531.552,478.128 L536.864,478.128 C537.205335,478.128 537.503999,478.255999 537.76,478.512 C538.016001,478.768001 538.144,479.066665 538.144,479.408 L538.144,484.72 Z" id="READY...SET…CODE!-Copy" fill="#000000"></path>
        </g>
    </g>
</svg>